<?xml version="1.0" encoding="UTF-8" ?><!DOCTYPE svg PUBLIC "-//W3C//DTD SVG 1.1//EN" "http://www.w3.org/Graphics/SVG/1.1/DTD/svg11.dtd"><svg width="800" height="600" viewBox="0 0 800 600" xmlns="http://www.w3.org/2000/svg" xmlns:xlink="http://www.w3.org/1999/xlink"><svg viewBox="0 0 800 600" width="800" height="600" id=""><g fill="#60dfc0"><path d="M393.48 124.9c1.95-1.32 4.4-.78 6.61-.92 8.63.13 17.27-.19 25.9.16l1.52.76c2.97.4 6.29-.63 9.01.96 2 .24 4.23-.24 6 .97 1.67.23 3.54-.1 4.99.99 1.67.19 3.45.09 4.98.92 1.34.25 2.71.44 3.99.93 1.03.29 2.03.65 3.01 1.09 1.34.23 2.73.36 4 .91.99.32 1.99.65 2.98 1.01 1 .31 1.99.64 2.99 1 1.43.41 2.81.99 4.18 1.59 1.66.69 3.35 1.28 5 1.99 2.35.93 4.71 1.83 6.96 3 1.32.71 2.66 1.39 4.03 2.03.5.24 1.49.73 1.98.97.93.49 1.86.99 2.79 1.48 12.26 6.11 23.37 14.37 33.65 23.32 7.59 6.35 15.13 13.84 18.21 23.49 1.12 1.8 1.81 3.81 1.97 5.93 1.21 2.12.65 4.65.88 6.97 1.39 2.04.7 4.65.7 6.96-1.64 2.42-.09 5.57-1.49 8.1-.31 1-.65 2-1 2.99-.29 1-.62 1.99-.99 2.97-.49 1.72-1.21 3.35-2.01 4.94-5.07 8.7-12.29 16.35-21.7 20.31-.49.26-1.49.77-1.98 1.03-2.61 1.14-5.31 2.12-8.14 2.5-3.3 1.42-7.02.51-10.49.76-2.82-.26-5.98.72-8.53-.82-1.67-.18-3.37-.24-4.95-.85-2.13-.67-4.15-1.62-6.14-2.62-.49-.24-1.48-.74-1.97-.99-5.01-2.38-9.33-6.01-13.16-9.99-3.11-3.33-6.98-5.79-10.66-8.44-4.67-3.27-9.97-5.45-15.02-8.04-1.03-.29-2.04-.61-3.04-.95-1.01-.33-2.01-.66-3-1.01-1.03-.32-2.04-.67-3.03-1.06-1.39-.25-2.82-.34-4.06-1.07-2-.25-4.16.04-5.96-1.05-7.99-.41-15.99-.38-23.98 0-1.51.97-3.34.83-5.02 1.09-1.3.51-2.66.77-4 1.08-1.32.41-2.68.69-4.02.99-1 .37-2.01.7-3.03.99-1.6.85-3.27 1.56-5.03 1.97-2.28 1.19-4.6 2.3-6.9 3.44-4.11 2.44-8.14 4.97-11.83 8.02-5.79 3.84-9.95 9.46-14.4 14.66-1 1.86-2.58 3.31-3.58 5.17-.92 1.71-2.01 3.33-3 5-.49.95-.97 1.9-1.45 2.85-.64 1.36-1.31 2.72-2.02 4.05-.42 1.78-1.05 3.54-2.12 5.04l-.32 1.96c-1.36 2.87-1.36 6.18-2.64 9.09-.16 1.63-.28 3.27-.44 4.9-.92 1.36-.74 3.02-.79 4.58.02 5.81-.13 11.63.16 17.44 1.12 1.82.79 4.04 1.08 6.08 1.05 3.64 2.34 7.26 3 11.01a15.71 15.71 0 0 1 2.04 5.02c1.2 2.27 2.31 4.6 3.45 6.91 1.02 1.66 2.11 3.28 3.01 5.02 2.53 4 5.77 7.47 8.58 11.26 4.78 5.24 10.5 9.53 16.28 13.6 1.72.92 3.35 2 5.03 3.01.93.47 1.87.95 2.81 1.43 1.37.64 2.73 1.32 4.08 2.02 1.78.43 3.49 1.11 5.05 2.09.48.09 1.44.26 1.92.34 1.34.56 2.72 1.05 4.07 1.61 1.68.21 3.42.27 5 .99 1.3.17 2.62.33 3.93.52 4.33 1.58 9.14.13 13.58 1.44 3.75-.92 7.64-.54 11.46-.9 3.27-1.02 6.69-1.48 10.06-2.08.99-.38 1.98-.73 2.99-1.05 1-.36 2.01-.69 3.02-1.01 1.01-.35 2.02-.67 3.05-.96 4.02-1.99 8.06-3.97 12.05-6.03 11.38-7.07 21.08-16.7 28.1-28.13 2.26-5.23 6.24-10.88 12.65-10.52.99.58 2.06.94 3.22 1.08 3.64 1.44 6.01 4.86 6.41 8.71.58 4.1-2.44 7.34-4.28 10.67-2.32 4.25-5.25 8.12-8.16 11.98-2.04 2.96-5.18 4.95-7.06 8.04-1.54 2.45-4.38 3.54-6.27 5.65-2.58 2.81-5.91 4.74-8.85 7.13-2.06 1.84-1.54 4.84-1.46 7.31 1.14 1.1 2.27 2.23 3.39 3.38 5.21 1.17 9.46-2.51 12.99-5.8 11.38-8.93 20.81-20.25 28.01-32.78.79-1.63 1.6-3.24 2.44-4.85.64-1.35 1.31-2.69 1.99-4.02.63-1.36 1.31-2.7 2.02-4.03.36-1.78 1.09-3.44 1.97-5.02.27-1.03.58-2.05.94-3.05.3-1.02.66-2.02 1.08-2.99.23-1.37.38-2.76.99-4.02.25-1.36.43-2.75 1.02-4.02.25-1.37.15-2.87 1.12-4-.71-5.1 2.53-10.59 7.62-11.82 1.56-.75 3.62-1.17 5.01.2.51.05 1.54.15 2.05.21 2.48 1.24 4.2 3.53 5.35 5.98 0 3.13.76 6.59-.73 9.48-.21 1.67-.07 3.46-.94 4.98-.23 1.34-.3 2.76-.98 3.99-.26 1.34-.47 2.7-.92 3.99-.33 1-.67 1.99-1.02 2.99-.31 1-.65 2-1 2.99-.33.99-.66 1.98-1 2.97-.62 2.15-1.6 4.18-2.62 6.17-.74 1.95-1.44 3.94-2.43 5.8-.25.49-.77 1.48-1.02 1.98-.24.5-.72 1.52-.96 2.03-.86 1.39-1.79 2.73-2.56 4.17-1.8 2.94-3.48 5.97-5.39 8.84-1.7 2.39-3.43 4.77-5.29 7.03-.24 2.7-.24 5.42-.01 8.13 1.18 2.29 2.87 4.29 5.36 5.2 1.07.27 2.11.64 3.13 1.1h1.94c1.01-.45 2.06-.82 3.13-1.11 1.09-.61 2.28-1.1 3.19-1.98 4.18-5.55 8.03-11.33 11.49-17.35 1.43-3 3.76-6.14 7.23-6.78 2.84-1.64 6.05-.14 8.58 1.36 4.1 2.8 5.21 8.66 2.94 12.98-9.82 17.45-22.4 33.34-37.48 46.53-2.71 1.53-4.33 4.43-7.2 5.72-5.67 5.22-12.23 9.4-18.79 13.4-4.11 2.75-8.62 4.76-12.99 7.05-3.38 1.49-6.51 3.57-10.11 4.52-1.57.89-3.25 1.57-5.01 1.98-1.57.9-3.26 1.56-4.99 2.05-.99.34-1.98.66-2.97.99-1 .35-2 .69-3.01 1.03-1.69.47-3.43.76-5.06 1.43-.48.12-1.45.37-1.93.49-1.67.54-3.39.9-5.07 1.39-2.93.74-5.89 1.37-8.91 1.59-1.86.9-3.98.72-5.97.96-2.87 1.43-6.27.14-9.16 1.48-11.23.52-22.53.54-33.76-.02-2.54-.99-5.33-.59-7.98-.96-2.28-.96-4.85-.52-7.14-1.42-1.68-.27-3.4-.4-5-1-4.06-.64-8.11-1.52-11.94-3.01-2.41-.43-4.75-1.12-7.01-2.01-2.72-.85-5.46-1.67-8-2.97-1.74-.48-3.4-1.18-4.99-2.01-3.59-1.02-6.76-3.04-10.13-4.57-3.72-1.88-7.48-3.7-10.98-5.99-19.81-11.84-37.6-27.2-51.26-45.84-6.41-8.19-11.99-17.02-16.42-26.43-2.05-4.29-4.54-8.4-5.99-12.94-.81-1.63-1.51-3.31-2.04-5.04-.34-.98-.67-1.96-.99-2.94-.35-1-.69-2-1.01-3-.34-.99-.66-1.98-.97-2.98-.84-2.28-1.56-4.62-2-7.02-.5-1.68-.87-3.39-1.37-5.06-1.33-5.4-2.2-10.9-3.13-16.37-.4-2.53.19-5.22-.89-7.61-.53-10.93-.52-21.93 0-32.86 1.1-2.38.47-5.08.89-7.6.93-5.48 1.8-10.97 3.13-16.37.49-1.67.86-3.38 1.36-5.04.46-2.39 1.14-4.74 2.01-7.01.31-1.02.63-2.03.97-3.03.32-.99.66-1.98 1.02-2.95.86-2.72 1.7-5.45 3.01-7.98 1.3-4.29 3.71-8.11 5.55-12.17 8.56-18.04 21.02-34 35-48.12 10.79-9.75 22.2-19.09 35.1-25.99 2.27-1.46 4.58-2.88 7.02-4.06 1.06-.49 2.12-1.01 3.19-1.5 2.45-1.43 5.08-2.49 7.75-3.44 1.99-1.03 4-2.06 6.19-2.61 1.26-.48 2.55-.9 3.8-1.42 1.36-.59 2.73-1.15 4.14-1.62 1.29-.46 2.65-.67 3.99-.92.97-.43 1.97-.78 3-1.06 1.25-.6 2.65-.7 4.01-.92 1.18-.81 2.63-.78 3.99-.98 1.19-.81 2.64-.79 4.01-1 1.5-.93 3.29-.76 4.97-.96 2.11-1.26 4.66-.69 6.98-.93 2.34-1.62 5.37-.61 8.02-.99z"/><path d="M499.53 304.56c2.95-1.05 6.38-.92 9.15.62 2.52 1.1 4.03 3.51 5.23 5.85.21 2.31.21 4.65 0 6.96-1.23 2.33-2.68 4.77-5.23 5.82-3.99 2.24-9.55 1.7-12.48-2.01-3.63-2.9-4.34-8.5-1.96-12.38 1.44-1.93 3.23-3.61 5.29-4.86z"/></g></svg></svg>